<svg xmlns="http://www.w3.org/2000/svg" viewBox="0 0 64 64" shape-rendering="crispEdges">
  <!-- Background -->
  <rect width="64" height="64" rx="10" fill="#0a0a0f"/>

  <!-- Body -->
  <rect x="26" y="22" width="14" height="18" fill="#555555"/>
  <rect x="24" y="24" width="16" height="14" fill="#aaaaaa"/>

  <!-- Head -->
  <rect x="26" y="12" width="12" height="12" fill="#aaaaaa"/>
  <!-- Dark crown / cap -->
  <rect x="26" y="12" width="12" height="5" fill="#111111"/>
  <rect x="24" y="14" width="4" height="4" fill="#111111"/>

  <!-- Eye -->
  <rect x="28" y="16" width="4" height="4" fill="#dddddd"/>
  <rect x="29" y="17" width="2" height="2" fill="#111111"/>
  <!-- Eye glint -->
  <rect x="30" y="17" width="1" height="1" fill="#ffffff"/>

  <!-- Beak -->
  <rect x="38" y="17" width="4" height="3" fill="#cccccc"/>
  <rect x="40" y="20" width="2" height="2" fill="#888888"/>

  <!-- Left wing (spread) -->
  <rect x="8"  y="24" width="16" height="4" fill="#777777"/>
  <rect x="4"  y="26" width="20" height="3" fill="#999999"/>
  <rect x="4"  y="29" width="16" height="3" fill="#555555"/>
  <!-- Wing feather tips -->
  <rect x="4"  y="32" width="4"  height="3" fill="#111111"/>
  <rect x="8"  y="32" width="4"  height="2" fill="#111111"/>
  <rect x="12" y="31" width="4"  height="2" fill="#111111"/>
  <rect x="16" y="30" width="4"  height="2" fill="#111111"/>

  <!-- Right wing (spread) -->
  <rect x="40" y="24" width="16" height="4" fill="#777777"/>
  <rect x="40" y="26" width="20" height="3" fill="#999999"/>
  <rect x="44" y="29" width="16" height="3" fill="#555555"/>
  <!-- Wing feather tips -->
  <rect x="56" y="32" width="4"  height="3" fill="#111111"/>
  <rect x="52" y="32" width="4"  height="2" fill="#111111"/>
  <rect x="48" y="31" width="4"  height="2" fill="#111111"/>
  <rect x="44" y="30" width="4"  height="2" fill="#111111"/>

  <!-- Chest / belly markings -->
  <rect x="26" y="30" width="2"  height="6" fill="#333333"/>
  <rect x="30" y="30" width="2"  height="6" fill="#333333"/>
  <rect x="34" y="30" width="2"  height="6" fill="#333333"/>

  <!-- Tail -->
  <rect x="26" y="40" width="12" height="6" fill="#777777"/>
  <rect x="24" y="44" width="16" height="4" fill="#555555"/>
  <!-- Tail band -->
  <rect x="24" y="46" width="16" height="2" fill="#111111"/>

  <!-- Talons / legs -->
  <rect x="28" y="48" width="3"  height="5" fill="#aaaaaa"/>
  <rect x="35" y="48" width="3"  height="5" fill="#aaaaaa"/>
  <!-- Claws -->
  <rect x="25" y="52" width="3"  height="2" fill="#dddddd"/>
  <rect x="28" y="53" width="3"  height="2" fill="#dddddd"/>
  <rect x="35" y="53" width="3"  height="2" fill="#dddddd"/>
  <rect x="38" y="52" width="3"  height="2" fill="#dddddd"/>

  <!-- Malar stripe (face markings) -->
  <rect x="36" y="18" width="3" height="5" fill="#111111"/>
</svg>
